<?xml version="1.0" encoding="UTF-8" standalone="no"?>
<svg
   xmlns:dc="http://purl.org/dc/elements/1.1/"
   xmlns:cc="http://creativecommons.org/ns#"
   xmlns:rdf="http://www.w3.org/1999/02/22-rdf-syntax-ns#"
   xmlns:svg="http://www.w3.org/2000/svg"
   xmlns="http://www.w3.org/2000/svg"
   xmlns:sodipodi="http://sodipodi.sourceforge.net/DTD/sodipodi-0.dtd"
   xmlns:inkscape="http://www.inkscape.org/namespaces/inkscape"
   version="1.1"
   viewBox="0 0 313.19516 166.79373"
   stroke-miterlimit="10"
   id="svg21"
   sodipodi:docname="logo.svg"
   width="313.19516"
   height="166.79373"
   style="fill:none;stroke:none;stroke-linecap:square;stroke-miterlimit:10"
   inkscape:version="0.92.4 (5da689c313, 2019-01-14)">
  <metadata
     id="metadata27">
    <rdf:RDF>
      <cc:Work
         rdf:about="">
        <dc:format>image/svg+xml</dc:format>
        <dc:type
           rdf:resource="http://purl.org/dc/dcmitype/StillImage" />
      </cc:Work>
    </rdf:RDF>
  </metadata>
  <defs
     id="defs25" />
  <sodipodi:namedview
     pagecolor="#ffffff"
     bordercolor="#666666"
     borderopacity="1"
     objecttolerance="10"
     gridtolerance="10"
     guidetolerance="10"
     inkscape:pageopacity="0"
     inkscape:pageshadow="2"
     inkscape:window-width="1920"
     inkscape:window-height="1017"
     id="namedview23"
     showgrid="false"
     inkscape:zoom="0.41837151"
     inkscape:cx="91.90683"
     inkscape:cy="-174.08452"
     inkscape:window-x="-8"
     inkscape:window-y="-8"
     inkscape:window-maximized="1"
     inkscape:current-layer="g19" />
  <clipPath
     id="p.0">
    <path
       d="M 0,0 H 960 V 720 H 0 Z"
       id="path2"
       inkscape:connector-curvature="0"
       style="clip-rule:nonzero" />
  </clipPath>
  <g
     clip-path="url(#p.0)"
     id="g19"
     transform="translate(-388.09317,-19.121761)">
    <path
       d="M 388.73239,19.121761 H 701.28834 V 185.91549 H 388.73239 Z"
       id="path5"
       inkscape:connector-curvature="0"
       style="fill:#000000;fill-opacity:0;fill-rule:evenodd;stroke-width:0.27463248" />
    <path
       d="M 388.09317,42.33858 H 699.7467 V 163.53543 H 388.09317 Z"
       id="path7"
       inkscape:connector-curvature="0"
       style="fill:#000000;fill-opacity:0;fill-rule:evenodd" />
    <path
       d="M 449.06192,131.97858 H 404.89004 V 70.900463 h 44.17188 v 11.8125 h -28.5 v 10.546875 h 26.45312 v 11.812502 h -26.45312 v 15.09375 h 28.5 z m 60.53711,0 h -17.21875 l -9.84375,-13.78124 -10.09375,13.78124 h -16.90625 l 18.17187,-23.01562 -17.875,-23.046872 h 17.21875 l 9.6875,13.53125 9.71875,-13.53125 h 16.9375 l -17.92187,22.687502 z m 32.03519,1.23437 q -6.03125,0 -11.01563,-1.4375 -4.98437,-1.4375 -8.67187,-4.43749 -3.65625,-2.98437 -5.67188,-7.53125 -2,-4.5625 -2,-10.67187 0,-6.4375 2.15625,-11.109377 2.15625,-4.6875 6,-7.765625 3.73438,-2.90625 8.60938,-4.25 4.89062,-1.359375 10.14062,-1.359375 4.71875,0 8.6875,1.03125 3.98438,1.015625 7.4375,2.65625 v 12.593747 h -2.09375 q -0.85937,-0.73437 -2.07812,-1.718747 -1.20313,-0.984375 -2.96875,-1.9375 -1.6875,-0.90625 -3.70313,-1.5 -2,-0.59375 -4.67187,-0.59375 -5.90625,0 -9.07813,3.765625 -3.17187,3.750002 -3.17187,10.187502 0,6.64062 3.25,10.09375 3.26562,3.4375 9.25,3.4375 2.79687,0 5.03125,-0.625 2.23437,-0.64063 3.70312,-1.5 1.40625,-0.82813 2.46875,-1.71875 1.0625,-0.90625 1.96875,-1.78125 h 2.09375 v 12.59374 q -3.48437,1.64062 -7.28125,2.60937 -3.79687,0.96875 -8.39062,0.96875 z"
       id="path9"
       inkscape:connector-curvature="0"
       style="fill:#000000;fill-rule:nonzero" />
    <path
       d="m 600.9018,131.97858 h -35.76563 v -10.82812 h 10 V 81.728588 h -10 V 70.900463 h 35.76563 v 10.828125 h -10.01563 v 39.421872 h 10.01563 z m 70.54297,-30.46874 q 0,8.53125 -3.90625,15.28125 -3.89063,6.73437 -9.82813,10.34375 -4.46875,2.70312 -9.8125,3.78124 -5.32812,1.0625 -12.625,1.0625 H 613.74164 V 70.900463 h 22.14063 q 7.46875,0 12.875,1.25 5.42187,1.25 9.10937,3.546875 6.32813,3.859375 9.95313,10.40625 3.625,6.546875 3.625,15.406252 z m -16.28125,-0.125 q 0,-6.031252 -2.20313,-10.312502 -2.1875,-4.296875 -6.9375,-6.71875 -2.42187,-1.1875 -4.95312,-1.609375 -2.51563,-0.4375 -7.60938,-0.4375 h -3.96875 v 38.234377 h 3.96875 q 5.625,0 8.25,-0.51563 2.625,-0.51562 5.125,-1.875 4.3125,-2.45312 6.3125,-6.57812 2.01563,-4.125 2.01563,-10.1875 z"
       id="path11"
       inkscape:connector-curvature="0"
       style="fill:#0000ff;fill-rule:nonzero" />
    <path
       d="m 560.1018,143.26479 c 17.49994,25.88304 49.6958,37.52573 79.70294,28.82225 30.0072,-8.70348 50.97656,-35.76659 51.91107,-66.99648 C 692.65032,73.860676 673.33672,45.592145 643.90368,35.109989 614.47063,24.62783 581.63616,34.32457 562.61993,59.114899 l 57.12811,43.822111 z"
       id="path13"
       inkscape:connector-curvature="0"
       style="fill:#000000;fill-opacity:0;fill-rule:evenodd" />
    <path
       d="m 560.1018,143.26479 c 17.49994,25.88304 49.6958,37.52573 79.70294,28.82225 30.0072,-8.70348 50.97656,-35.76659 51.91107,-66.99648 C 692.65032,73.860676 673.33672,45.592145 643.90368,35.109989 614.47063,24.62783 581.63616,34.32457 562.61993,59.114899"
       id="path15"
       inkscape:connector-curvature="0"
       style="fill:#000000;fill-opacity:0;fill-rule:evenodd" />
    <path
       d="m 560.1018,143.26479 c 17.49994,25.88304 49.6958,37.52573 79.70294,28.82225 30.0072,-8.70348 50.97656,-35.76659 51.91107,-66.99648 C 692.65032,73.860676 673.33672,45.592145 643.90368,35.109989 614.47063,24.62783 581.63616,34.32457 562.61993,59.114899"
       id="path17"
       inkscape:connector-curvature="0"
       style="fill-rule:evenodd;stroke:#cc0000;stroke-width:12;stroke-linecap:butt;stroke-linejoin:round" />
  </g>
</svg>
